<svg width="102" height="26" viewBox="0 0 102 26" fill="none" xmlns="http://www.w3.org/2000/svg">
<path d="M11.3613 7.6614H9.08805C8.95916 7.6614 8.8537 7.76735 8.8537 7.89684V9.11524C8.27953 8.17348 7.06676 7.4083 5.47317 7.4083C2.90701 7.4083 0.698242 9.35068 0.698242 12.8293C0.698242 16.3079 2.80155 18.1856 5.56691 18.1856C7.05504 18.1856 8.22095 17.5675 8.90057 16.5846V17.2438C8.90057 18.7388 8.17993 19.9337 5.85985 19.9337C4.69395 19.9337 3.75654 19.5511 2.92459 18.8036C2.81913 18.7153 2.64922 18.7388 2.58478 18.8448L1.56535 20.5753C1.43645 20.7872 1.45989 20.9167 1.54191 21.005C2.60235 21.9232 3.98503 22.5 5.98288 22.5C10.3418 22.5 11.6132 20.0632 11.6132 17.3733V7.87918C11.5898 7.74969 11.4843 7.66729 11.3554 7.66729L11.3613 7.6614ZM6.21724 15.6487C4.66465 15.6487 3.49875 14.5362 3.49875 12.8528C3.49875 11.1695 4.66465 10.057 6.21724 10.057C7.76982 10.057 8.91814 11.1224 8.91814 12.8528C8.91814 14.5833 7.76982 15.6487 6.21724 15.6487ZM16.6108 3.73544V17.8501C16.6108 17.9796 16.5053 18.0855 16.3764 18.0855H14.0797C13.9509 18.0855 13.8454 17.9796 13.8454 17.8501V3.73544C13.8454 3.60595 13.9509 3.5 14.0797 3.5H16.3764C16.5053 3.5 16.6108 3.60595 16.6108 3.73544ZM23.366 7.43185C21.1982 7.43185 19.5636 8.15582 18.8195 9.60967C18.7785 9.71561 18.7961 9.84511 18.9074 9.90985L20.5654 11.1047C20.6709 11.193 20.8232 11.1459 20.8818 11.04C21.3505 10.21 22.37 9.92751 23.366 9.92751C24.5963 9.92751 25.1705 10.3572 25.1705 10.9752V11.1459C25.1705 11.4049 25.024 11.5285 24.6373 11.5756L21.7899 11.8346C19.88 12.0288 18.4739 13.2001 18.4739 15.1013C18.4739 17.0025 19.921 18.3445 21.9774 18.3445C23.5944 18.3445 24.6315 17.5558 25.1646 16.72V17.8913C25.1646 18.0208 25.2701 18.1267 25.399 18.1267H27.6722C27.8011 18.1267 27.9065 18.0208 27.9065 17.8913V11.6757C27.9065 8.77385 26.3774 7.42596 23.3601 7.42596L23.366 7.43185ZM25.1705 13.877C25.1705 15.0307 24.2331 16.0136 22.7918 16.0136C21.8368 16.0136 21.3271 15.584 21.3271 14.9012C21.3271 14.3244 21.7724 13.877 22.6043 13.7475L25.1763 13.4297V13.877H25.1705ZM38.8156 14.9247C38.8156 17.2968 37.0931 18.3209 34.3336 18.3209C32.4237 18.3209 30.7832 17.8089 29.8517 16.7435C29.7872 16.6552 29.7872 16.5316 29.8517 16.4433L31.1699 14.7364C31.2578 14.6304 31.4277 14.6304 31.5097 14.7128C32.2127 15.4191 33.2732 15.8665 34.6149 15.8665C35.3824 15.8665 35.9975 15.6546 35.9975 15.0778C35.9975 14.5009 35.4468 14.395 33.7009 14.0124C32.1717 13.6945 30.2559 12.9882 30.2559 10.7221C30.2559 8.60905 31.9139 7.41419 34.6324 7.41419C36.4194 7.41419 37.6907 7.94981 38.6047 8.80328C38.6926 8.89157 38.6926 9.01518 38.6281 9.12113L37.3744 10.7457C37.2865 10.8516 37.14 10.8752 37.058 10.7869C36.4428 10.2336 35.4234 9.89219 34.4215 9.89219C33.572 9.89219 33.1033 10.1688 33.1033 10.6162C33.1033 11.1283 33.654 11.2577 35.5054 11.6639C37.2923 12.07 38.8215 12.7528 38.8215 14.9306L38.8156 14.9247ZM49.3322 14.9247C49.3322 17.2968 47.6097 18.3209 44.8502 18.3209C42.9402 18.3209 41.2998 17.8089 40.3682 16.7435C40.3038 16.6552 40.3038 16.5316 40.3682 16.4433L41.6864 14.7364C41.7743 14.6304 41.9442 14.6304 42.0262 14.7128C42.7293 15.4191 43.7897 15.8665 45.1314 15.8665C45.8989 15.8665 46.5141 15.6546 46.5141 15.0778C46.5141 14.5009 45.9634 14.395 44.2174 14.0124C42.6883 13.6945 40.7725 12.9882 40.7725 10.7221C40.7725 8.60905 42.4305 7.41419 45.149 7.41419C46.9359 7.41419 48.2073 7.94981 49.1213 8.80328C49.2091 8.89157 49.2091 9.01518 49.1447 9.12113L47.8909 10.7457C47.803 10.8516 47.6565 10.8752 47.5745 10.7869C46.9594 10.2336 45.9399 9.89219 44.9381 9.89219C44.0885 9.89219 43.6198 10.1688 43.6198 10.6162C43.6198 11.1283 44.1706 11.2577 46.0219 11.6639C47.8089 12.07 49.338 12.7528 49.338 14.9306L49.3322 14.9247ZM61.5185 3.5H59.2453C59.1164 3.5 59.0109 3.60595 59.0109 3.73544V9.15644C58.3079 8.15582 57.142 7.38476 55.5249 7.38476C52.9939 7.38476 50.8496 9.35068 50.8496 12.8705C50.8496 16.3903 52.9939 18.3386 55.5659 18.3386C57.0775 18.3386 58.2668 17.6794 59.0109 16.6081V17.8265C59.0109 17.956 59.1164 18.062 59.2453 18.062H61.5185C61.6474 18.062 61.7528 17.956 61.7528 17.8265V3.7119C61.7528 3.60595 61.6474 3.5 61.5185 3.5ZM56.3745 15.6722C54.8219 15.6722 53.656 14.5598 53.656 12.8764C53.656 11.193 54.8219 10.0805 56.3745 10.0805C57.927 10.0805 59.0929 11.1459 59.0929 12.8764C59.0929 14.5833 57.9036 15.6722 56.3745 15.6722ZM69.0178 7.4083C65.8306 7.4083 63.4519 9.60967 63.4519 12.8764C63.4519 16.1431 65.8306 18.3445 69.0178 18.3445C72.2049 18.3445 74.5836 16.1431 74.5836 12.8764C74.5836 9.60967 72.2049 7.4083 69.0178 7.4083ZM69.0178 15.6252C67.4652 15.6252 66.2524 14.5127 66.2524 12.847C66.2524 11.1812 67.4652 10.0688 69.0178 10.0688C70.5703 10.0688 71.7831 11.1812 71.7831 12.847C71.7597 14.5362 70.5703 15.6252 69.0178 15.6252ZM81.661 7.4083C78.4739 7.4083 76.0952 9.60967 76.0952 12.8764C76.0952 16.1431 78.4739 18.3445 81.661 18.3445C84.8482 18.3445 87.2269 16.1431 87.2269 12.8764C87.2503 9.63321 84.8658 7.4083 81.661 7.4083ZM81.661 15.6252C80.1085 15.6252 78.8957 14.5127 78.8957 12.847C78.8957 11.1812 80.1085 10.0688 81.661 10.0688C83.2136 10.0688 84.4264 11.1812 84.4264 12.847C84.4264 14.5127 83.2371 15.6252 81.661 15.6252ZM96.2202 7.89684C96.2202 7.79089 96.1323 7.68494 96.0503 7.63786C95.8394 7.53191 95.5171 7.44362 94.8844 7.44362C93.4372 7.44362 92.1424 8.1676 91.5917 9.36245V7.89095C91.5917 7.76146 91.4863 7.65551 91.3574 7.65551H89.1896C89.0607 7.65551 88.9553 7.76146 88.9553 7.89095V17.8501C88.9553 17.9796 89.0607 18.0855 89.1896 18.0855H91.4628C91.5917 18.0855 91.6972 17.9796 91.6972 17.8501V13.3649C91.6972 11.3578 93.0798 10.3748 94.8844 10.3748C95.3121 10.3748 95.7339 10.4631 95.9272 10.5455C96.0737 10.5867 96.226 10.4808 96.226 10.3336V7.89684H96.2202Z" fill="white"/>
</svg>
